<?xml version="1.0" standalone="no"?><!DOCTYPE svg PUBLIC "-//W3C//DTD SVG 1.1//EN" "http://www.w3.org/Graphics/SVG/1.1/DTD/svg11.dtd"><svg t="1626083780837" class="icon" viewBox="0 0 1024 1024" version="1.1" xmlns="http://www.w3.org/2000/svg" p-id="11675" xmlns:xlink="http://www.w3.org/1999/xlink" width="128" height="128"><defs><style type="text/css"></style></defs><path d="M913.666 0H110.334C49.496 0 0 49.496 0 110.334v803.332C0 974.504 49.496 1024 110.334 1024h803.332C974.504 1024 1024 974.504 1024 913.666V110.334C1024 49.496 974.504 0 913.666 0zM964 110.334V482h-100.686c0.014-0.71 0.02-1.422 0.02-2.132 0-60.838-49.496-110.334-110.334-110.334s-110.334 49.496-110.334 110.334c0 0.71 0.006 1.424 0.02 2.132H542v-137.37a29.994 29.994 0 0 0-42.006-27.492 50 50 0 0 1-20.126 4.196c-27.754 0-50.334-22.58-50.334-50.334s22.58-50.334 50.334-50.334c6.98 0 13.752 1.412 20.126 4.196A30.002 30.002 0 0 0 542 197.37V60h371.666C941.42 60 964 82.58 964 110.334zM110.334 60H482v100.686c-0.71-0.014-1.42-0.02-2.132-0.02-60.838 0-110.334 49.496-110.334 110.334s49.496 110.334 110.334 110.334c0.712 0 1.422-0.006 2.132-0.02V482h-137.37a30 30 0 0 0-27.494 42.002 50.006 50.006 0 0 1 4.198 20.13c0 27.754-22.58 50.334-50.334 50.334s-50.334-22.58-50.334-50.334c0-6.976 1.412-13.75 4.198-20.13A30 30 0 0 0 197.37 482H60V110.334C60 82.58 82.58 60 110.334 60zM60 913.666V542h100.686c-0.014 0.71-0.02 1.42-0.02 2.132 0 60.838 49.496 110.334 110.334 110.334s110.334-49.496 110.334-110.334c0-0.712-0.006-1.422-0.02-2.132H482v137.37a29.998 29.998 0 0 0 42.002 27.494 50.006 50.006 0 0 1 20.13-4.198c27.754 0 50.334 22.58 50.334 50.334s-22.58 50.334-50.334 50.334c-6.976 0-13.75-1.412-20.13-4.198A30 30 0 0 0 482 826.63V964H110.334C82.58 964 60 941.42 60 913.666zM913.666 964H542v-100.686c0.71 0.014 1.42 0.02 2.132 0.02 60.838 0 110.334-49.496 110.334-110.334s-49.496-110.334-110.334-110.334c-0.712 0-1.422 0.006-2.132 0.02V542h137.37a29.996 29.996 0 0 0 27.49-42.01 49.952 49.952 0 0 1-4.194-20.124c0-27.754 22.58-50.334 50.334-50.334s50.334 22.58 50.334 50.334a49.96 49.96 0 0 1-4.194 20.124 30.008 30.008 0 0 0 2.386 28.438A30.004 30.004 0 0 0 826.63 542H964v371.666C964 941.42 941.42 964 913.666 964z" p-id="11676" fill="#ffffff"></path></svg>